# xmcd
#
# Track frame offsets:
#	150
#	14789
#	35478
#	48516
#	59836
#	70088
#	87485
#	103287
#	120886
#	131971
#	144096
#	160659
#	177392
#	191750
#	207521
#	222822
#	239289
#	263340
#	275649
#	294817
#	310570
#	322987
#	341724
#
# Disc length: 4757 seconds
#
# Revision: 0
# Processed by: cddbd v1.4PL0 Copyright (c) Steve Scherf et al.
# Submitted via: EasyCDDAExtractor 5.0.4.1
#
DISCID=5c129317
DTITLE=Le mejor del Folklore Peruano
DYEAR=1900
DGENRE=Folklore
TTITLE0=Velicha
TTITLE1=El condor Pasa
TTITLE2=Carnaval de Arequipa
TTITLE3=Negra del alma
TTITLE4=Airampito
TTITLE5=La danza de los caporales
TTITLE6=Mambo de Machahuay
TTITLE7=El huascaran
TTITLE8=Llaulillay
TTITLE9=El Cilulo
TTITLE10=Balseros del titicaca
TTITLE11=Sicuri
TTITLE12=Adios Pueblo de ayacucho
TTITLE13=Virgenes del sol
TTITLE14=El picaflor
TTITLE15=Un canto para despertar
TTITLE16=Titicaca
TTITLE17=Entrada de capitanes
TTITLE18=Carnaval del apurimac
TTITLE19=El Vuelo del condor
TTITLE20=Cuzquenito
TTITLE21=Mi raza
TTITLE22=Charanguito
EXTD=
EXTT0=
EXTT1=
EXTT2=
EXTT3=
EXTT4=
EXTT5=
EXTT6=
EXTT7=
EXTT8=
EXTT9=
EXTT10=
EXTT11=
EXTT12=
EXTT13=
EXTT14=
EXTT15=
EXTT16=
EXTT17=
EXTT18=
EXTT19=
EXTT20=
EXTT21=
EXTT22=
PLAYORDER=
